#!OML:ASF H:\charlestonDancing\Project 1\Capture day 1\Session 1\femaleDancer.ASF
:FULLY-SPECIFIED
:DEGREES
52
root -0.8337 17.4581 4.8557 419.254 -85.7783 -417.358
lowerback 26.3388 -3.7015 7.28447
upperback 7.76515 -3.48747 0.90978
thorax -6.22494 -1.97785 -2.05158
lowerneck 1.22625 7.77793 9.6648
upperneck -1.61556 10.4616 -12.1152
head 0.492034 5.27507 -5.08027
rclavicle -2.77118e-014 -1.95927e-014
rhumerus -55.8287 -25.7157 -43.5088
rradius 97.4278
rwrist -50.148
rhand -13.1942 -30.6418
rfingers 7.12502
rthumb 12.906 -60.2227
lclavicle -2.77118e-014 -1.95927e-014
lhumerus -69.7641 11.6742 72.2381
lradius 26.0684
lwrist -15.8626
lhand -18.1104 14.9546
lfingers 7.12502
lthumb 8.1638 44.7769
rfemur -21.0275 1.12242 30.0049
rtibia 41.0771
rfoot -18.6378 -4.76828
rtoes -8.09451
lfemur -54.7592 -3.29602 -15.3986
ltibia 94.1323
lfoot -19.3575 -7.80433
ltoes -28.7047
53
root -0.825161 17.5139 4.87183 422.054 -86.3029 -420.279
lowerback 26.7935 -3.28898 7.00319
upperback 8.06993 -3.04783 0.859649
thorax -6.05732 -1.77112 -2.07902
lowerneck 0.890515 7.6338 9.65994
upperneck -2.25487 10.197 -12.2971
head 0.341751 5.13934 -5.14494
rclavicle -2.82771e-014 1.99033e-014
rhumerus -55.9337 -26.5219 -42.995
rradius 96.898
rwrist -50.1126
rhand -12.2913 -30.167
rfingers 7.12502
rthumb 13.7763 -59.6908
lclavicle -2.82771e-014 1.99033e-014
lhumerus -71.7026 11.5743 71.467
lradius 24.3602
lwrist -18.2065
lhand -17.8183 16.0352
lfingers 7.12502
lthumb 8.4457 45.8463
rfemur -20.4164 1.74967 29.5794
rtibia 40.165
rfoot -18.0198 -5.10628
rtoes -9.52663
lfemur -55.542 -4.06306 -15.3472
ltibia 89.0613
lfoot -20.1044 -6.45998
ltoes -28.6822
54
root -0.819143 17.56 4.88504 428.802 -86.7584 -426.918
lowerback 26.9873 -2.82392 6.81044
upperback 8.26203 -2.52072 0.865585
thorax -5.88351 -1.52003 -2.13063
lowerneck 0.663452 7.54393 9.58159
upperneck -2.86096 10.0119 -12.4383
head 0.186121 5.04642 -5.18717
rclavicle -1.35671e-014 4.96962e-016
rhumerus -56.1989 -27.1855 -42.3537
rradius 96.629
rwrist -50.2009
rhand -11.7239 -29.8486
rfingers 7.12502
rthumb 14.323 -59.3346
lclavicle -1.35671e-014 4.96962e-016
lhumerus -73.5072 11.7126 69.8895
lradius 22.2704
lwrist -20.5417
lhand -18.2555 17.184
lfingers 7.12502
lthumb 8.02372 47.0117
rfemur -20.1685 2.60328 29.2673
rtibia 39.4714
rfoot -17.6399 -5.40649
rtoes -10.347
lfemur -56.0354 -4.47055 -15.1077
ltibia 83.0988
lfoot -20.2383 -5.37587
ltoes -27.4641
55
root -0.819821 17.5923 4.89983 436.899 -87.3064 -434.759
lowerback 26.9805 -2.37863 6.58067
upperback 8.33391 -2.0279 0.806679
thorax -5.75517 -1.28122 -2.22398
lowerneck 0.667349 7.51658 9.59811
upperneck -3.52844 9.92022 -12.7596
head 0.000310533 5.00894 -5.30692
rclavicle -3.67752e-015 5.26779e-015
rhumerus -56.7319 -27.5867 -41.5635
rradius 96.6962
rwrist -50.605
rhand -11.5929 -29.8958
rfingers 7.12502
rthumb 14.4493 -59.3727
lclavicle -3.67752e-015 5.26779e-015
lhumerus -75.4611 12.2781 66.6425
lradius 19.9109
lwrist -23.528
lhand -20.9555 19.15
lfingers 7.12502
lthumb 5.41731 49.0607
rfemur -20.1255 3.32816 28.7498
rtibia 38.9039
rfoot -17.6047 -5.51593
rtoes -10.6248
lfemur -56.107 -4.80918 -14.9954
ltibia 76.2617
lfoot -20.0425 -4.47921
ltoes -25.8758
56
root -0.822318 17.6141 4.91536 448.806 -88.0662 -446.371
lowerback 26.8726 -2.00192 6.08595
upperback 8.33096 -1.6926 0.61653
thorax -5.67868 -1.11535 -2.25992
lowerneck 1.00263 7.65958 9.86156
upperneck -4.37451 10.0657 -13.3859
head -0.23407 5.10453 -5.5696
rclavicle -2.18663e-015 4.17448e-015
rhumerus -57.2776 -27.6732 -40.9012
rradius 97.0373
rwrist -51.0955
rhand -11.4434 -30.1407
rfingers 7.12502
rthumb 14.5933 -59.6073
lclavicle -2.18663e-015 4.17448e-015
lhumerus -77.862 13.3418 61.1082
lradius 17.5191
lwrist -27.6885
lhand -26.6553 24.8804
lfingers 7.12502
lthumb -0.0871454 54.8601
rfemur -20.2066 3.84347 27.9021
rtibia 38.4614
rfoot -17.7268 -5.27297
rtoes -9.88394
lfemur -55.7212 -5.15965 -15.1054
ltibia 68.7029
lfoot -19.4065 -4.19432
ltoes -23.4671
57
root -0.82123 17.6292 4.93124 473.082 -88.5333 -470.391
lowerback 26.825 -1.80498 5.54092
upperback 8.23488 -1.58649 0.397414
thorax -5.75602 -1.0624 -2.22237
lowerneck 1.72966 8.117 10.3937
upperneck -5.39206 10.6514 -14.3176
head -0.493074 5.4397 -5.97791
rclavicle -1.88845e-014 5.56597e-015
rhumerus -57.4612 -27.3216 -40.6855
rradius 97.421
rwrist -51.3283
rhand -11.2961 -30.4293
rfingers 7.12502
rthumb 14.7352 -59.8856
lclavicle -1.88845e-014 5.56597e-015
lhumerus -81.1819 14.8616 52.669
lradius 15.3683
lwrist -33.2758
lhand -30.1505 32.3506
lfingers 7.12502
lthumb -3.4628 62.3022
rfemur -20.4086 4.15863 27.1811
rtibia 38.2399
rfoot -18.0411 -4.75906
rtoes -8.52842
lfemur -54.9456 -5.55809 -14.971
ltibia 60.7465
lfoot -18.0175 -4.66306
ltoes -21.0814
58
root -0.814112 17.639 4.94723 501.589 -88.391 -498.766
lowerback 26.8205 -1.69971 5.23322
upperback 8.06177 -1.52572 0.201856
thorax -5.94528 -1.03279 -2.27809
lowerneck 3.07015 8.71973 11.0841
upperneck -6.62041 11.4642 -15.5471
head -0.844351 5.92296 -6.53872
rclavicle -4.87022e-015 -5.36719e-015
rhumerus -57.6678 -26.7216 -40.5208
rradius 97.9109
rwrist -51.3694
rhand -11.2657 -30.6888
rfingers 7.12502
rthumb 14.7645 -60.1429
lclavicle -4.87022e-015 -5.36719e-015
lhumerus -85.6652 16.2231 40.2564
lradius 13.487
lwrist -41.5425
lhand -28.6492 36.4453
lfingers 7.12502
lthumb -2.01292 66.4155
rfemur -20.5731 4.2427 26.7373
rtibia 38.1391
rfoot -18.3813 -4.0394
rtoes -7.79755
lfemur -53.874 -6.04616 -14.4396
ltibia 53.0069
lfoot -16.6314 -4.78939
ltoes -23.5748
59
root -0.81314 17.6058 4.96652 520.008 -87.7724 -517.24
lowerback 26.7923 -1.629 4.98944
upperback 7.9805 -1.51196 -0.0354968
thorax -6.02522 -1.02585 -2.40349
lowerneck 4.52829 9.37813 11.2182
upperneck -8.17803 12.3515 -15.7583
head -1.3934 6.43976 -6.73466
rclavicle -2.64384e-014 -3.43897e-014
rhumerus -57.738 -26.1012 -40.606
rradius 98.57
rwrist -51.3921
rhand -11.0726 -30.8401
rfingers 7.12502
rthumb 14.9506 -60.2805
lclavicle -2.64384e-014 -3.43897e-014
lhumerus -90.8915 16.6361 24.6263
lradius 11.9466
lwrist -52.0987
lhand -15.0965 22.2412
lfingers 7.12502
lthumb 11.0717 51.9291
rfemur -20.6236 4.19884 26.4366
rtibia 38.1926
rfoot -18.6793 -3.11247
rtoes -7.60327
lfemur -52.8007 -6.69515 -13.5406
ltibia 46.1804
lfoot -12.8988 -6.18033
ltoes -24.4934
60
root -0.811969 17.5701 4.98587 523.057 -86.8184 -520.454
lowerback 26.7563 -1.23257 5.47587
upperback 8.34471 -0.935898 0.0119573
thorax -5.55275 -0.749278 -2.814
lowerneck 3.59189 9.77626 10.4748
upperneck -8.71344 12.7215 -15.5819
head -1.40559 6.60602 -6.51927
rclavicle 8.74653e-015 5.96354e-015
rhumerus -57.9922 -26.8275 -39.8432
rradius 99.2825
rwrist -51.5327
rhand -10.7133 -30.871
rfingers 7.12502
rthumb 15.2967 -60.2853
lclavicle 8.74653e-015 5.96354e-015
lhumerus -94.9101 16.3531 8.09367
lradius 10.696
lwrist -64.6892
lhand -15.3581 23.6282
lfingers 7.12502
lthumb 10.8194 53.3295
rfemur -20.5923 4.17996 26.5987
rtibia 38.3426
rfoot -18.9918 -2.12851
rtoes -7.60182
lfemur -51.7966 -7.27821 -12.1923
ltibia 41.0222
lfoot -9.58351 -7.578
ltoes -22.254
